<svg version="1.1" id="Layer_1" xmlns="http://www.w3.org/2000/svg" xmlns:xlink="http://www.w3.org/1999/xlink" x="0px" y="0px"
	 viewBox="0 0 1024 768" enable-background="new 0 0 1024 768" xml:space="preserve">
<g>

	<path fill="none" stroke="#000000" stroke-width="4" stroke-miterlimit="10" d="M109.741,405.594v14.883H49.102v-87.33h59.532
		v14.883H66.076v21.033h36.777v13.776H66.076v22.755H109.741z"/>
	<path fill="none" stroke="#000000" stroke-width="4" stroke-miterlimit="10" d="M131.635,356.025l13.899,20.172l0.984,2.214
		l1.23-2.214l13.776-20.172h16.974l-23.001,32.349l23.37,32.103h-16.974l-14.268-20.049l-1.107-2.091l-0.984,2.091l-14.145,20.049
		h-16.974l23.247-32.103l-22.878-32.349H131.635z"/>
	<path fill="none" stroke="#000000" stroke-width="4" stroke-miterlimit="10" d="M225.36,421.707c-5.085,0-9.513-1.128-13.284-3.383
		c-3.772-2.254-6.725-5.309-8.856-9.163v37.515h-16.482v-90.651h14.391v11.07c2.377-3.771,5.452-6.744,9.225-8.917
		c3.771-2.172,8.118-3.26,13.038-3.26c4.345,0,8.364,0.882,12.054,2.645c3.69,1.764,6.867,4.142,9.533,7.134
		c2.664,2.994,4.754,6.519,6.273,10.578c1.516,4.059,2.275,8.345,2.275,12.854c0,4.675-0.698,9.062-2.091,13.161
		c-1.396,4.102-3.342,7.668-5.843,10.701c-2.502,3.035-5.474,5.412-8.917,7.134S229.459,421.707,225.36,421.707z M219.825,407.686
		c2.46,0,4.736-0.533,6.827-1.6c2.091-1.064,3.875-2.5,5.351-4.305c1.476-1.803,2.623-3.895,3.444-6.273
		c0.819-2.377,1.23-4.837,1.23-7.38c0-2.706-0.452-5.228-1.353-7.564c-0.903-2.337-2.152-4.366-3.751-6.088
		s-3.486-3.075-5.658-4.059c-2.174-0.984-4.532-1.476-7.073-1.476c-1.559,0-3.158,0.267-4.797,0.8
		c-1.642,0.534-3.158,1.292-4.551,2.275c-1.395,0.984-2.645,2.133-3.751,3.444c-1.107,1.313-1.949,2.749-2.521,4.305v15.128
		c1.476,3.69,3.73,6.746,6.765,9.164C213.018,406.477,216.298,407.686,219.825,407.686z"/>
	<path fill="none" stroke="#000000" stroke-width="4" stroke-miterlimit="10" d="M294.607,421.707c-5.166,0-9.84-0.883-14.022-2.645
		c-4.182-1.762-7.749-4.16-10.701-7.195c-2.952-3.033-5.228-6.56-6.827-10.578c-1.599-4.017-2.398-8.241-2.398-12.669
		c0-4.591,0.778-8.917,2.337-12.977c1.557-4.059,3.813-7.626,6.765-10.701c2.952-3.075,6.538-5.514,10.763-7.318
		c4.222-1.803,8.958-2.706,14.207-2.706c5.247,0,9.942,0.903,14.083,2.706c4.14,1.805,7.666,4.224,10.578,7.257
		c2.91,3.035,5.124,6.562,6.642,10.578c1.517,4.019,2.276,8.201,2.276,12.546c0,1.067-0.021,2.091-0.062,3.075
		c-0.042,0.984-0.145,1.805-0.308,2.46h-49.815c0.246,2.542,0.861,4.797,1.845,6.765c0.984,1.969,2.254,3.65,3.813,5.043
		c1.557,1.396,3.321,2.461,5.289,3.198c1.968,0.738,4.017,1.106,6.15,1.106c3.279,0,6.375-0.799,9.287-2.398
		c2.91-1.598,4.899-3.709,5.965-6.334l14.145,3.936c-2.379,4.92-6.171,8.961-11.377,12.116
		C308.034,420.129,301.822,421.707,294.607,421.707z M311.335,382.839c-0.412-4.837-2.195-8.712-5.351-11.624
		c-3.158-2.91-6.992-4.366-11.5-4.366c-2.214,0-4.286,0.39-6.211,1.168c-1.928,0.78-3.628,1.866-5.104,3.259
		c-1.476,1.396-2.687,3.075-3.628,5.043c-0.944,1.968-1.498,4.142-1.661,6.519H311.335z"/>
	<path fill="none" stroke="#000000" stroke-width="4" stroke-miterlimit="10" d="M376.771,370.293
		c-5.002,0.083-9.471,1.045-13.407,2.891c-3.936,1.845-6.765,4.612-8.487,8.302v38.991h-16.482v-64.452h15.129v13.776
		c1.147-2.214,2.5-4.202,4.059-5.966c1.557-1.762,3.238-3.3,5.043-4.612c1.803-1.311,3.628-2.316,5.474-3.014
		c1.845-0.696,3.628-1.045,5.351-1.045c0.901,0,1.578,0,2.029,0c0.45,0,0.88,0.042,1.292,0.123V370.293z"/>
	<path fill="none" stroke="#000000" stroke-width="4" stroke-miterlimit="10" d="M424.617,417.156
		c-2.214,0.984-4.92,1.968-8.118,2.951c-3.198,0.984-6.561,1.477-10.086,1.477c-2.296,0-4.449-0.288-6.458-0.861
		c-2.01-0.572-3.772-1.494-5.289-2.768c-1.518-1.27-2.727-2.909-3.628-4.92c-0.903-2.008-1.353-4.447-1.353-7.318v-37.023h-8.487
		v-12.669h8.487v-20.91h16.482v20.91h13.53v12.669h-13.53v31.488c0,2.297,0.594,3.917,1.784,4.859
		c1.188,0.943,2.645,1.414,4.367,1.414c1.722,0,3.401-0.287,5.043-0.861c1.639-0.572,2.952-1.064,3.936-1.476L424.617,417.156z"/>
	<path fill="none" stroke="#000000" stroke-width="4" stroke-miterlimit="10" d="M459.054,376.197c0-5.33,0.963-10.598,2.891-15.806
		c1.926-5.207,4.736-9.859,8.425-13.96c3.69-4.1,8.199-7.42,13.53-9.963c5.329-2.541,11.396-3.813,18.204-3.813
		c8.035,0,14.984,1.764,20.849,5.289c5.861,3.527,10.228,8.118,13.099,13.776l-13.037,8.979c-1.149-2.46-2.543-4.53-4.183-6.211
		c-1.641-1.68-3.403-3.014-5.289-3.998c-1.887-0.984-3.855-1.701-5.903-2.153c-2.051-0.45-4.06-0.676-6.027-0.676
		c-4.265,0-7.976,0.861-11.132,2.583c-3.157,1.722-5.78,3.957-7.872,6.704c-2.091,2.748-3.671,5.863-4.735,9.348
		c-1.066,3.486-1.599,6.95-1.599,10.394c0,3.855,0.615,7.564,1.845,11.131c1.23,3.567,2.972,6.703,5.228,9.41
		c2.254,2.705,4.96,4.879,8.118,6.519c3.155,1.642,6.621,2.46,10.394,2.46c1.968,0,4.017-0.246,6.149-0.738
		c2.132-0.492,4.161-1.27,6.089-2.336c1.926-1.065,3.709-2.439,5.351-4.121c1.64-1.68,2.952-3.709,3.936-6.088l13.899,7.994
		c-1.396,3.281-3.383,6.172-5.966,8.672c-2.583,2.502-5.494,4.612-8.732,6.334c-3.24,1.723-6.704,3.035-10.394,3.936
		c-3.69,0.902-7.3,1.354-10.824,1.354c-6.232,0-11.931-1.311-17.097-3.936c-5.166-2.623-9.615-6.047-13.346-10.271
		c-3.732-4.223-6.642-9.02-8.733-14.392C460.1,387.248,459.054,381.774,459.054,376.197z"/>
	<path fill="none" stroke="#000000" stroke-width="4" stroke-miterlimit="10" d="M546.998,330.687h16.482v69.125
		c0,2.38,0.572,4.225,1.722,5.535c1.147,1.313,2.787,1.969,4.92,1.969c0.984,0,2.07-0.164,3.26-0.492
		c1.188-0.326,2.315-0.738,3.383-1.23l2.214,12.547c-2.214,1.066-4.797,1.887-7.749,2.459c-2.952,0.573-5.618,0.861-7.995,0.861
		c-5.166,0-9.164-1.372-11.993-4.121c-2.828-2.746-4.243-6.66-4.243-11.746V330.687z"/>
	<path fill="none" stroke="#000000" stroke-width="4" stroke-miterlimit="10" d="M615.999,421.707c-5.166,0-9.84-0.883-14.021-2.645
		s-7.749-4.16-10.701-7.195c-2.952-3.033-5.228-6.56-6.826-10.578c-1.6-4.017-2.398-8.241-2.398-12.669
		c0-4.591,0.778-8.917,2.337-12.977c1.557-4.059,3.813-7.626,6.765-10.701c2.952-3.075,6.538-5.514,10.763-7.318
		c4.223-1.803,8.958-2.706,14.206-2.706c5.247,0,9.942,0.903,14.084,2.706c4.14,1.805,7.666,4.224,10.578,7.257
		c2.909,3.035,5.123,6.562,6.642,10.578c1.517,4.019,2.275,8.201,2.275,12.546c0,1.067-0.021,2.091-0.062,3.075
		c-0.042,0.984-0.144,1.805-0.308,2.46h-49.814c0.246,2.542,0.861,4.797,1.845,6.765c0.984,1.969,2.255,3.65,3.813,5.043
		c1.557,1.396,3.32,2.461,5.289,3.198c1.968,0.738,4.017,1.106,6.149,1.106c3.279,0,6.375-0.799,9.287-2.398
		c2.909-1.598,4.898-3.709,5.965-6.334l14.146,3.936c-2.38,4.92-6.172,8.961-11.378,12.116
		C629.426,420.129,623.214,421.707,615.999,421.707z M632.728,382.839c-0.411-4.837-2.195-8.712-5.351-11.624
		c-3.157-2.91-6.992-4.366-11.501-4.366c-2.214,0-4.285,0.39-6.211,1.168c-1.928,0.78-3.629,1.866-5.104,3.259
		c-1.477,1.396-2.687,3.075-3.629,5.043c-0.943,1.968-1.497,4.142-1.66,6.519H632.728z"/>
	<path fill="none" stroke="#000000" stroke-width="4" stroke-miterlimit="10" d="M677.376,421.707c-3.117,0-6.026-0.514-8.732-1.537
		c-2.706-1.025-5.043-2.461-7.012-4.305c-1.968-1.846-3.505-3.998-4.612-6.458c-1.106-2.46-1.66-5.166-1.66-8.118
		c0-3.033,0.677-5.842,2.029-8.426c1.353-2.582,3.238-4.775,5.658-6.58c2.418-1.803,5.308-3.217,8.671-4.244
		c3.361-1.024,7.052-1.538,11.07-1.538c2.869,0,5.678,0.246,8.426,0.738c2.746,0.492,5.185,1.189,7.318,2.091v-3.69
		c0-4.263-1.211-7.543-3.629-9.84c-2.419-2.295-6.008-3.444-10.762-3.444c-3.444,0-6.808,0.615-10.086,1.845
		c-3.281,1.23-6.643,3.035-10.087,5.412l-5.043-10.455c8.282-5.493,17.221-8.241,26.814-8.241c9.266,0,16.461,2.275,21.587,6.827
		c5.123,4.551,7.688,11.131,7.688,19.741v20.049c0,1.722,0.307,2.951,0.922,3.689s1.618,1.15,3.014,1.23v14.021
		c-2.789,0.573-5.208,0.861-7.257,0.861c-3.117,0-5.516-0.697-7.195-2.091c-1.682-1.394-2.728-3.238-3.137-5.535l-0.369-3.567
		c-2.871,3.773-6.355,6.643-10.455,8.61C686.436,420.723,682.05,421.707,677.376,421.707z M682.05,409.652
		c2.787,0,5.432-0.491,7.934-1.475c2.501-0.984,4.447-2.295,5.843-3.937c1.803-1.394,2.706-2.952,2.706-4.675v-7.379
		c-1.968-0.738-4.102-1.332-6.396-1.784c-2.296-0.45-4.51-0.677-6.642-0.677c-4.265,0-7.749,0.965-10.455,2.891
		c-2.706,1.928-4.059,4.367-4.059,7.318c0,2.789,1.064,5.105,3.197,6.95C676.31,408.73,678.933,409.652,682.05,409.652z"/>
	<path fill="none" stroke="#000000" stroke-width="4" stroke-miterlimit="10" d="M790.289,420.477h-16.482v-36.162
		c0-5.166-0.903-8.937-2.706-11.316c-1.805-2.377-4.305-3.567-7.503-3.567c-1.642,0-3.321,0.329-5.043,0.984
		c-1.722,0.657-3.342,1.58-4.858,2.768c-1.519,1.189-2.891,2.604-4.12,4.244c-1.23,1.641-2.134,3.444-2.706,5.412v37.638h-16.482
		v-64.452h14.883v11.931c2.378-4.099,5.821-7.297,10.332-9.594c4.509-2.294,9.594-3.444,15.252-3.444
		c4.017,0,7.298,0.738,9.84,2.214c2.541,1.476,4.509,3.404,5.904,5.781c1.394,2.379,2.356,5.085,2.891,8.118
		c0.532,3.035,0.8,6.109,0.8,9.225V420.477z"/>
	<path fill="none" stroke="#000000" stroke-width="4" stroke-miterlimit="10" d="M804.679,347.046v-16.359h16.482v16.359H804.679z
		 M804.679,420.477v-64.452h16.482v64.452H804.679z"/>
	<path fill="none" stroke="#000000" stroke-width="4" stroke-miterlimit="10" d="M895.943,420.477h-16.482v-36.162
		c0-5.166-0.903-8.937-2.706-11.316c-1.805-2.377-4.305-3.567-7.503-3.567c-1.642,0-3.321,0.329-5.043,0.984
		c-1.722,0.657-3.342,1.58-4.858,2.768c-1.519,1.189-2.891,2.604-4.12,4.244c-1.23,1.641-2.134,3.444-2.706,5.412v37.638h-16.482
		v-64.452h14.883v11.931c2.378-4.099,5.821-7.297,10.332-9.594c4.509-2.294,9.594-3.444,15.252-3.444
		c4.017,0,7.298,0.738,9.84,2.214c2.541,1.476,4.509,3.404,5.904,5.781c1.394,2.379,2.356,5.085,2.891,8.118
		c0.532,3.035,0.8,6.109,0.8,9.225V420.477z"/>
	<path fill="none" stroke="#000000" stroke-width="4" stroke-miterlimit="10" d="M935.548,420.846
		c-4.347,0-8.283-0.861-11.808-2.582c-3.526-1.723-6.581-4.078-9.164-7.073c-2.583-2.992-4.571-6.458-5.965-10.394
		c-1.396-3.936-2.091-8.117-2.091-12.546c0-4.674,0.737-9.019,2.214-13.038c1.476-4.017,3.524-7.543,6.149-10.578
		c2.624-3.033,5.781-5.412,9.472-7.134c3.689-1.722,7.749-2.583,12.177-2.583c5.001,0,9.389,1.128,13.161,3.383
		c3.771,2.256,6.888,5.27,9.348,9.04v-11.316h14.391v61.377c0,4.754-0.903,9.02-2.705,12.791c-1.805,3.771-4.286,6.969-7.442,9.595
		c-3.157,2.624-6.93,4.632-11.315,6.026c-4.388,1.395-9.164,2.092-14.33,2.092c-7.053,0-12.977-1.168-17.773-3.506
		c-4.797-2.337-8.917-5.639-12.361-9.901l8.979-8.733c2.46,3.033,5.554,5.412,9.286,7.135c3.73,1.722,7.688,2.582,11.869,2.582
		c2.541,0,4.981-0.35,7.319-1.045c2.337-0.697,4.406-1.783,6.211-3.26c1.803-1.476,3.218-3.363,4.243-5.658
		c1.024-2.296,1.538-5.002,1.538-8.117v-8.118c-2.134,3.69-5.126,6.54-8.979,8.548C944.116,419.843,939.977,420.846,935.548,420.846
		z M941.083,407.686c1.803,0,3.524-0.287,5.166-0.861c1.64-0.572,3.156-1.354,4.551-2.338c1.394-0.983,2.624-2.131,3.69-3.443
		c1.064-1.311,1.885-2.706,2.46-4.182v-15.375c-1.477-3.771-3.794-6.805-6.949-9.102c-3.158-2.295-6.458-3.444-9.902-3.444
		c-2.542,0-4.839,0.554-6.888,1.661c-2.051,1.107-3.813,2.583-5.289,4.428c-1.476,1.845-2.604,3.958-3.382,6.335
		c-0.78,2.379-1.169,4.839-1.169,7.38c0,2.625,0.449,5.085,1.353,7.38c0.901,2.297,2.153,4.305,3.752,6.027
		c1.599,1.722,3.463,3.074,5.597,4.059C936.203,407.193,938.54,407.686,941.083,407.686z"/>
</g>

</svg>
